# xmcd CD database file
#
# Track frame offsets:
#	150
#	10206
#	25921
#	43772
#	56214
#	78910
#	93577
#	103192
#	112593
#	127085
#	141635
#	152403
#	170387
#	187554
#
# Disc length: 2711 seconds
#
# Revision: 0
# Processed by: cddbd v1.5.2PL0 Copyright (c) Steve Scherf et al.
# Submitted via: CDex 1.51
#
DISCID=b00a950e
DTITLE=Linnzi Zaorski - Hot Wax and Whiskey
DYEAR=1900
DGENRE=Jazz
TTITLE0=Between the Devil and the Deep blue Sea
TTITLE1=The Object of My Affection
TTITLE2=I Hate Myself (For Being Mean to You)
TTITLE3=This Can't Be Love
TTITLE4=Good Morning Heartache
TTITLE5=How Deep is the Ocean
TTITLE6=Rhythm In Me
TTITLE7=It's Too Hot For Words
TTITLE8=Just One of Those Things
TTITLE9=You Turned The Tables On Me
TTITLE10=Deed I Do
TTITLE11=The Lady In Red
TTITLE12=Bei Mir Bist Du Schoen
TTITLE13=Do You KNow What It Means To Miss New Orleans
EXTD=
EXTT0=
EXTT1=
EXTT2=
EXTT3=
EXTT4=
EXTT5=
EXTT6=
EXTT7=
EXTT8=
EXTT9=
EXTT10=
EXTT11=
EXTT12=
EXTT13=
PLAYORDER=
